<svg width="18" height="18" viewBox="0 0 18 18" fill="none" xmlns="http://www.w3.org/2000/svg">
<g clip-path="url(#clip0_5852_24817)">
<path d="M8.29008 2.43845C8.58048 1.85004 9.41952 1.85004 9.70992 2.43845L11.4608 5.9862C11.5762 6.21985 11.7991 6.3818 12.0569 6.41927L15.9721 6.98818C16.6214 7.08254 16.8807 7.88051 16.4108 8.33852L13.5778 11.1001C13.3912 11.2819 13.3061 11.544 13.3501 11.8008L14.0189 15.7001C14.1298 16.3469 13.451 16.84 12.8702 16.5347L9.3684 14.6937C9.13776 14.5724 8.86224 14.5724 8.63161 14.6937L5.12976 16.5347C4.54898 16.84 3.87018 16.3469 3.9811 15.7001L4.64989 11.8008C4.69394 11.544 4.60879 11.2819 4.42221 11.1001L1.58916 8.33852C1.11929 7.88051 1.37857 7.08254 2.02791 6.98818L5.94309 6.41927C6.20094 6.3818 6.42385 6.21985 6.53916 5.9862L8.29008 2.43845Z" stroke="white" stroke-width="1.3" stroke-linecap="round" stroke-linejoin="round"/>
</g>
<defs>
<clipPath id="clip0_5852_24817">
<rect width="18" height="18" fill="white"/>
</clipPath>
</defs>
</svg>
