<svg width="17" height="18" viewBox="0 0 17 18" fill="none" xmlns="http://www.w3.org/2000/svg">
<path d="M3.54169 11.3281H2.83335C2.45763 11.3281 2.0973 11.1789 1.83162 10.9132C1.56594 10.6475 1.41669 10.2872 1.41669 9.91145V3.53645C1.41669 3.16072 1.56594 2.80039 1.83162 2.53471C2.0973 2.26904 2.45763 2.11978 2.83335 2.11978H9.20835C9.58408 2.11978 9.94441 2.26904 10.2101 2.53471C10.4758 2.80039 10.625 3.16072 10.625 3.53645V4.24478M7.79169 7.07812H14.1667C14.9491 7.07812 15.5834 7.71238 15.5834 8.49478V14.8698C15.5834 15.6522 14.9491 16.2864 14.1667 16.2864H7.79169C7.00928 16.2864 6.37502 15.6522 6.37502 14.8698V8.49478C6.37502 7.71238 7.00928 7.07812 7.79169 7.07812Z" stroke="white" stroke-width="1.3" stroke-linecap="round" stroke-linejoin="round"/>
</svg>
