<svg width="17" height="17" viewBox="0 0 17 17" fill="none" xmlns="http://www.w3.org/2000/svg">
<path d="M1.70312 12.3516C0.53125 11.1719 0.492188 9.80469 1.61719 8.6875L8.83594 1.46094C9.58594 0.710938 10.6094 0.726562 11.375 1.48438L15.6172 5.73438C16.3828 6.49219 16.3984 7.52344 15.6484 8.26562L8.42188 15.4922C7.30469 16.6172 5.9375 16.5781 4.75781 15.3984L1.70312 12.3516ZM9.79688 2.70312L4.51562 7.99219L9.11719 12.5859L14.4062 7.30469C14.5703 7.13281 14.5781 6.89844 14.4141 6.73438L10.375 2.70312C10.2109 2.53125 9.96875 2.53125 9.79688 2.70312ZM2.84375 11.2812L5.82812 14.2578C6.33594 14.7656 6.91406 14.7969 7.38281 14.3203L8.17188 13.5312L3.57031 8.92969L2.78125 9.72656C2.3125 10.1953 2.34375 10.7734 2.84375 11.2812Z" fill="#4B4C5C"/>
</svg>
