<svg width="53" height="51" viewBox="0 0 53 51" fill="none" xmlns="http://www.w3.org/2000/svg">
<path fill-rule="evenodd" clip-rule="evenodd" d="M8.24036 8.90175C6.43477 10.5281 5.38967 13.0746 5.38967 16.8637V27.0706C5.38967 31.9954 6.49159 34.4151 8.1554 35.7265C9.9205 37.1177 12.7702 37.6552 17.2877 37.6552H18.4208C19.0345 37.6552 19.6405 37.8282 20.1263 38.0451C20.5995 38.2564 21.1531 38.5962 21.5578 39.092L24.9508 43.1671C25.4024 43.7094 25.9184 43.9018 26.3528 43.9018C26.7873 43.9018 27.3033 43.7094 27.7548 43.1671L31.1542 39.0844L31.1612 39.076C31.9289 38.1661 33.098 37.6552 34.2848 37.6552H35.418C39.722 37.6552 42.633 36.683 44.4653 35.0326C46.2709 33.4062 47.316 30.8597 47.316 27.0706V16.8637C47.316 13.0746 46.2709 10.5281 44.4653 8.90175C42.633 7.25129 39.722 6.27918 35.418 6.27918H17.2877C12.9837 6.27918 10.0727 7.25129 8.24036 8.90175ZM5.9384 6.45333C8.63868 4.02104 12.5265 2.95178 17.2877 2.95178H35.418C40.1791 2.95178 44.067 4.02104 46.7672 6.45333C49.4942 8.90969 50.7154 12.4874 50.7154 16.8637V27.0706C50.7154 31.447 49.4942 35.0247 46.7672 37.481C44.067 39.9133 40.1791 40.9826 35.418 40.9826H34.2848C34.0683 40.9826 33.8788 41.0825 33.7845 41.1923C33.7838 41.1931 33.7831 41.194 33.7824 41.1948L30.3899 45.2692C29.3457 46.5233 27.89 47.2292 26.3528 47.2292C24.8156 47.2292 23.3599 46.5233 22.3157 45.2692L18.9189 41.1896C18.9138 41.1854 18.9055 41.1791 18.8936 41.1707C18.853 41.1422 18.792 41.1066 18.7154 41.0724C18.6391 41.0383 18.5642 41.0132 18.501 40.9978C18.4455 40.9843 18.4174 40.9827 18.4174 40.9826L17.2877 40.9826C12.74 40.9826 8.79084 40.4994 6.02336 38.3181C3.15459 36.0571 1.99023 32.3527 1.99023 27.0706V16.8637C1.99023 12.4874 3.21142 8.90969 5.9384 6.45333Z" fill="#727BC7"/>
<path d="M14.5605 15.2637H39.0383" stroke="#727BC7" stroke-width="2.72999" stroke-linecap="round"/>
<path d="M14.5605 21.9186H39.0383" stroke="#727BC7" stroke-width="2.72999" stroke-linecap="round"/>
<path d="M14.5605 28.5731H28.1593" stroke="#727BC7" stroke-width="2.72999" stroke-linecap="round"/>
</svg>
