<svg width="18" height="18" viewBox="0 0 18 18" fill="none" xmlns="http://www.w3.org/2000/svg">
<circle cx="9" cy="9" r="7" stroke="#4B4C5C"/>
<mask id="mask0_6133_9503" style="mask-type:alpha" maskUnits="userSpaceOnUse" x="1" y="1" width="16" height="16">
<circle cx="9" cy="9" r="7" fill="#D9D9D9" stroke="#4B4C5C"/>
</mask>
<g mask="url(#mask0_6133_9503)">
<path d="M17 -1C17 2.80902 13.4789 6 9 6C4.52108 6 1 2.80902 1 -1C1 -4.80902 4.52108 -8 9 -8C13.4789 -8 17 -4.80902 17 -1Z" stroke="#4B4C5C"/>
<path d="M1 19C1 15.191 4.52108 12 9 12C13.4789 12 17 15.191 17 19C17 22.809 13.4789 26 9 26C4.52107 26 1 22.809 1 19Z" stroke="#4B4C5C"/>
</g>
<path d="M12 9C12 11.0149 11.6179 12.8146 11.0218 14.0919C10.4068 15.4097 9.65685 16 9 16C8.34315 16 7.59323 15.4097 6.97822 14.0919C6.38215 12.8146 6 11.0149 6 9C6 6.98515 6.38215 5.18543 6.97822 3.90814C7.59323 2.59025 8.34315 2 9 2C9.65685 2 10.4068 2.59025 11.0218 3.90814C11.6179 5.18543 12 6.98515 12 9Z" stroke="#4B4C5C"/>
<line x1="2.5" y1="9" x2="15.5" y2="9" stroke="#4B4C5C"/>
</svg>
