<svg width="20" height="20" viewBox="0 0 20 20" fill="none" xmlns="http://www.w3.org/2000/svg">
<circle cx="10" cy="10" r="9" fill="white"/>
<g clip-path="url(#clip0_6132_61270)">
<path d="M10 18.3334C14.6024 18.3334 18.3333 14.6024 18.3333 10C18.3333 5.39765 14.6024 1.66669 10 1.66669C5.39763 1.66669 1.66667 5.39765 1.66667 10C1.66667 14.6024 5.39763 18.3334 10 18.3334Z" stroke="#9092A9" stroke-width="1.4" stroke-linejoin="round"/>
<path d="M5.83333 11.25C6.52368 11.25 7.08333 10.6904 7.08333 10C7.08333 9.30964 6.52368 8.75 5.83333 8.75C5.14297 8.75 4.58333 9.30964 4.58333 10C4.58333 10.6904 5.14297 11.25 5.83333 11.25Z" fill="#9092A9"/>
<path d="M10 11.25C10.6904 11.25 11.25 10.6904 11.25 10C11.25 9.30964 10.6904 8.75 10 8.75C9.30964 8.75 8.75 9.30964 8.75 10C8.75 10.6904 9.30964 11.25 10 11.25Z" fill="#9092A9"/>
<path d="M14.1667 11.25C14.857 11.25 15.4167 10.6904 15.4167 10C15.4167 9.30964 14.857 8.75 14.1667 8.75C13.4763 8.75 12.9167 9.30964 12.9167 10C12.9167 10.6904 13.4763 11.25 14.1667 11.25Z" fill="#9092A9"/>
</g>
<defs>
<clipPath id="clip0_6132_61270">
<rect width="20" height="20" fill="white"/>
</clipPath>
</defs>
</svg>
