<svg width="20" height="20" viewBox="0 0 20 20" fill="none" xmlns="http://www.w3.org/2000/svg">
<path d="M12.083 4.09866H11.368C11.368 4.41502 11.5759 4.69378 11.8791 4.78398L12.083 4.09866ZM13.303 4.60439L12.9623 5.23303C13.2406 5.38379 13.5848 5.33373 13.8086 5.10997L13.303 4.60439ZM14.1393 3.76805L13.6337 3.26247L13.6337 3.26247L14.1393 3.76805ZM15.4357 3.76805L15.9413 3.26247L15.9413 3.26247L15.4357 3.76805ZM16.732 5.06442L17.2376 4.55883L17.2376 4.55883L16.732 5.06442ZM16.732 6.36078L17.2376 6.86636L17.2376 6.86636L16.732 6.36078ZM15.8957 7.19709L15.3902 6.69151C15.1664 6.91527 15.1163 7.25951 15.2671 7.53774L15.8957 7.19709ZM16.4014 8.41685L15.7161 8.62076C15.8063 8.92397 16.0851 9.13185 16.4014 9.13185V8.41685ZM16.4012 12.0835V11.3685C16.0849 11.3685 15.8062 11.5764 15.7159 11.8795L16.4012 12.0835ZM15.8957 13.3026L15.2671 12.9619C15.1163 13.2401 15.1664 13.5844 15.3901 13.8081L15.8957 13.3026ZM14.1398 16.732L13.6342 17.2376L13.6342 17.2376L14.1398 16.732ZM13.303 15.8953L13.8086 15.3897C13.5848 15.1659 13.2406 15.1159 12.9623 15.2666L13.303 15.8953ZM12.083 16.401L11.8791 15.7157C11.5759 15.8059 11.368 16.0846 11.368 16.401H12.083ZM8.41631 16.4006H9.13131C9.13131 16.0843 8.92349 15.8055 8.62034 15.7153L8.41631 16.4006ZM7.19763 15.8952L7.53828 15.2666C7.26005 15.1158 6.91581 15.1658 6.69204 15.3896L7.19763 15.8952ZM5.06478 16.7317L5.57036 16.2261L5.57036 16.2261L5.06478 16.7317ZM3.76842 15.4353L3.26284 15.9409L3.26284 15.9409L3.76842 15.4353ZM4.60493 13.3024L5.11051 13.808C5.33427 13.5843 5.38433 13.24 5.23357 12.9618L4.60493 13.3024ZM4.09952 12.0835L4.7848 11.8795C4.69456 11.5764 4.41583 11.3685 4.09952 11.3685V12.0835ZM4.09931 8.41685V9.13185C4.41565 9.13185 4.69439 8.92397 4.78461 8.62076L4.09931 8.41685ZM4.60492 7.19721L5.23356 7.53784C5.38432 7.25962 5.33426 6.91539 5.1105 6.69163L4.60492 7.19721ZM3.76886 6.36115L3.26328 6.86673L3.26328 6.86673L3.76886 6.36115ZM3.76886 5.06478L3.26328 4.5592L3.26328 4.5592L3.76886 5.06478ZM5.06522 3.76842L5.5708 4.274L5.5708 4.274L5.06522 3.76842ZM6.36158 3.76842L5.856 4.274L5.856 4.274L6.36158 3.76842ZM7.19762 4.60445L6.69203 5.11003C6.9158 5.3338 7.26004 5.38386 7.53827 5.23309L7.19762 4.60445ZM8.41631 4.09909L8.62034 4.78436C8.92349 4.6941 9.13131 4.41539 9.13131 4.09909H8.41631ZM9.33297 1.285C8.43183 1.285 7.70131 2.01552 7.70131 2.91667H9.13131C9.13131 2.80529 9.2216 2.715 9.33297 2.715V1.285ZM11.1663 1.285H9.33297V2.715H11.1663V1.285ZM12.798 2.91667C12.798 2.01552 12.0675 1.285 11.1663 1.285V2.715C11.2777 2.715 11.368 2.80529 11.368 2.91667H12.798ZM12.798 4.09866V2.91667H11.368V4.09866H12.798ZM13.6436 3.97575C13.216 3.74402 12.7618 3.55465 12.2868 3.41335L11.8791 4.78398C12.2581 4.89672 12.6207 5.04788 12.9623 5.23303L13.6436 3.97575ZM13.6337 3.26247L12.7974 4.09881L13.8086 5.10997L14.6449 4.27364L13.6337 3.26247ZM15.9413 3.26247C15.3041 2.62527 14.2709 2.62527 13.6337 3.26247L14.6449 4.27364C14.7237 4.19488 14.8513 4.19488 14.9301 4.27364L15.9413 3.26247ZM17.2376 4.55883L15.9413 3.26247L14.9301 4.27364L16.2265 5.57L17.2376 4.55883ZM17.2376 6.86636C17.8748 6.22915 17.8748 5.19604 17.2376 4.55883L16.2265 5.57C16.3052 5.64875 16.3052 5.77644 16.2265 5.8552L17.2376 6.86636ZM16.4013 7.70267L17.2376 6.86636L16.2265 5.8552L15.3902 6.69151L16.4013 7.70267ZM17.0867 8.21293C16.9454 7.73805 16.7561 7.28399 16.5244 6.85644L15.2671 7.53774C15.4522 7.87936 15.6034 8.24185 15.7161 8.62076L17.0867 8.21293ZM16.4014 9.13185H17.5833V7.70185H16.4014V9.13185ZM17.5833 9.13185C17.6947 9.13185 17.785 9.22214 17.785 9.33351H19.215C19.215 8.43237 18.4845 7.70185 17.5833 7.70185V9.13185ZM17.785 9.33351V11.1668H19.215V9.33351H17.785ZM17.785 11.1668C17.785 11.2782 17.6947 11.3685 17.5833 11.3685V12.7985C18.4845 12.7985 19.215 12.068 19.215 11.1668H17.785ZM17.5833 11.3685H16.4012V12.7985H17.5833V11.3685ZM16.5244 13.6432C16.7559 13.2159 16.9452 12.7621 17.0865 12.2875L15.7159 11.8795C15.6032 12.2582 15.4521 12.6205 15.2671 12.9619L16.5244 13.6432ZM17.2381 13.6337L16.4013 12.797L15.3901 13.8081L16.2269 14.6449L17.2381 13.6337ZM17.2381 15.9413C17.8753 15.3041 17.8753 14.2709 17.2381 13.6337L16.2269 14.6449C16.3057 14.7237 16.3057 14.8513 16.2269 14.9301L17.2381 15.9413ZM15.9417 17.2376L17.2381 15.9413L16.2269 14.9301L14.9305 16.2265L15.9417 17.2376ZM13.6342 17.2376C14.2714 17.8748 15.3045 17.8748 15.9417 17.2376L14.9305 16.2265C14.8518 16.3052 14.7241 16.3052 14.6453 16.2265L13.6342 17.2376ZM12.7974 16.4008L13.6342 17.2376L14.6453 16.2265L13.8086 15.3897L12.7974 16.4008ZM12.2868 17.0863C12.7618 16.945 13.216 16.7556 13.6436 16.5239L12.9623 15.2666C12.6207 15.4518 12.2581 15.6029 11.8791 15.7157L12.2868 17.0863ZM12.798 17.5833V16.401H11.368V17.5833H12.798ZM11.1663 19.215C12.0675 19.215 12.798 18.4845 12.798 17.5833H11.368C11.368 17.6947 11.2777 17.785 11.1663 17.785V19.215ZM9.33298 19.215H11.1663V17.785H9.33298V19.215ZM7.70131 17.5833C7.70131 18.4845 8.43183 19.215 9.33298 19.215V17.785C9.2216 17.785 9.13131 17.6947 9.13131 17.5833H7.70131ZM7.70131 16.4006V17.5833H9.13131V16.4006H7.70131ZM6.85697 16.5238C7.28417 16.7553 7.73783 16.9446 8.21227 17.0858L8.62034 15.7153C8.24178 15.6026 7.87961 15.4515 7.53828 15.2666L6.85697 16.5238ZM6.86673 17.2373L7.70321 16.4008L6.69204 15.3896L5.85556 16.2261L6.86673 17.2373ZM4.5592 17.2373C5.19641 17.8745 6.22952 17.8745 6.86673 17.2373L5.85556 16.2261C5.77681 16.3049 5.64912 16.3049 5.57036 16.2261L4.5592 17.2373ZM3.26284 15.9409L4.5592 17.2373L5.57036 16.2261L4.274 14.9297L3.26284 15.9409ZM3.26284 13.6334C2.62563 14.2706 2.62563 15.3037 3.26284 15.9409L4.274 14.9297C4.19524 14.851 4.19524 14.7233 4.274 14.6445L3.26284 13.6334ZM4.09934 12.7969L3.26284 13.6334L4.274 14.6445L5.11051 13.808L4.09934 12.7969ZM3.41424 12.2875C3.5555 12.7621 3.74475 13.2158 3.97628 13.6431L5.23357 12.9618C5.04858 12.6204 4.89752 12.2582 4.7848 11.8795L3.41424 12.2875ZM4.09952 11.3685H2.91667V12.7985H4.09952V11.3685ZM2.91667 11.3685C2.80529 11.3685 2.715 11.2782 2.715 11.1668H1.285C1.285 12.068 2.01552 12.7985 2.91667 12.7985V11.3685ZM2.715 11.1668V9.33351H1.285V11.1668H2.715ZM2.715 9.33351C2.715 9.22213 2.80529 9.13185 2.91667 9.13185V7.70185C2.01552 7.70185 1.285 8.43237 1.285 9.33351H2.715ZM2.91667 9.13185H4.09931V7.70185H2.91667V9.13185ZM3.97628 6.85657C3.74462 7.28409 3.55529 7.7381 3.414 8.21293L4.78461 8.62076C4.89735 8.24189 5.04847 7.87943 5.23356 7.53784L3.97628 6.85657ZM3.26328 6.86673L4.09934 7.70279L5.1105 6.69163L4.27444 5.85556L3.26328 6.86673ZM3.26328 4.5592C2.62607 5.19641 2.62607 6.22952 3.26328 6.86673L4.27444 5.85556C4.19568 5.77681 4.19568 5.64912 4.27444 5.57036L3.26328 4.5592ZM4.55964 3.26284L3.26328 4.5592L4.27444 5.57036L5.5708 4.274L4.55964 3.26284ZM6.86716 3.26284C6.22996 2.62563 5.19684 2.62563 4.55964 3.26284L5.5708 4.274C5.64956 4.19525 5.77725 4.19525 5.856 4.274L6.86716 3.26284ZM7.7032 4.09887L6.86716 3.26284L5.856 4.274L6.69203 5.11003L7.7032 4.09887ZM8.21227 3.41382C7.73782 3.55508 7.28416 3.74432 6.85696 3.97582L7.53827 5.23309C7.8796 5.04812 8.24178 4.89707 8.62034 4.78436L8.21227 3.41382ZM7.70131 2.91667V4.09909H9.13131V2.91667H7.70131Z" fill="white"/>
<circle cx="10.25" cy="10.25" r="2.75" stroke="white" stroke-width="1.43" stroke-linecap="round" stroke-linejoin="round"/>
</svg>
