<svg width="20" height="21" viewBox="0 0 20 21" fill="none" xmlns="http://www.w3.org/2000/svg">
<path d="M9.99999 19.0364C14.6024 19.0364 18.3333 15.3055 18.3333 10.7031C18.3333 6.10074 14.6024 2.36978 9.99999 2.36978C5.39761 2.36978 1.66666 6.10074 1.66666 10.7031C1.66666 15.3055 5.39761 19.0364 9.99999 19.0364Z" stroke="white" stroke-width="1.4" stroke-linejoin="round"/>
<path d="M5.83334 11.9531C6.5237 11.9531 7.08334 11.3935 7.08334 10.7031C7.08334 10.0128 6.5237 9.45312 5.83334 9.45312C5.14299 9.45312 4.58334 10.0128 4.58334 10.7031C4.58334 11.3935 5.14299 11.9531 5.83334 11.9531Z" fill="white"/>
<path d="M10 11.9531C10.6904 11.9531 11.25 11.3935 11.25 10.7031C11.25 10.0128 10.6904 9.45312 10 9.45312C9.30964 9.45312 8.75 10.0128 8.75 10.7031C8.75 11.3935 9.30964 11.9531 10 11.9531Z" fill="white"/>
<path d="M14.1667 11.9531C14.857 11.9531 15.4167 11.3935 15.4167 10.7031C15.4167 10.0128 14.857 9.45312 14.1667 9.45312C13.4763 9.45312 12.9167 10.0128 12.9167 10.7031C12.9167 11.3935 13.4763 11.9531 14.1667 11.9531Z" fill="white"/>
</svg>
