<svg width="18" height="18" viewBox="0 0 18 18" fill="none" xmlns="http://www.w3.org/2000/svg">
<path d="M9 17C7.90719 17 6.87712 16.7909 5.9098 16.3726C4.94771 15.9542 4.09804 15.3765 3.36078 14.6392C2.62353 13.902 2.04575 13.0523 1.62745 12.0902C1.20915 11.1229 1 10.0928 1 9C1 7.90719 1.20915 6.87974 1.62745 5.91765C2.04575 4.95033 2.62092 4.09804 3.35294 3.36078C4.0902 2.62353 4.93987 2.04575 5.90196 1.62745C6.86928 1.20915 7.89935 1 8.99216 1C10.085 1 11.115 1.20915 12.0824 1.62745C13.0497 2.04575 13.902 2.62353 14.6392 3.36078C15.3765 4.09804 15.9542 4.95033 16.3726 5.91765C16.7909 6.87974 17 7.90719 17 9C17 10.0928 16.7909 11.1229 16.3726 12.0902C15.9542 13.0523 15.3765 13.902 14.6392 14.6392C13.902 15.3765 13.0497 15.9542 12.0824 16.3726C11.1203 16.7909 10.0928 17 9 17ZM9 15.6667C9.92549 15.6667 10.7909 15.4941 11.5961 15.149C12.4013 14.8039 13.1098 14.3281 13.7216 13.7216C14.3333 13.1098 14.8092 12.4013 15.149 11.5961C15.4941 10.7909 15.6667 9.92549 15.6667 9C15.6667 8.07451 15.4941 7.20915 15.149 6.40392C14.8039 5.59869 14.3255 4.8902 13.7137 4.27843C13.1072 3.66667 12.3987 3.19085 11.5882 2.85098C10.783 2.50588 9.91765 2.33333 8.99216 2.33333C8.06667 2.33333 7.20131 2.50588 6.39608 2.85098C5.59085 3.19085 4.88497 3.66667 4.27843 4.27843C3.6719 4.8902 3.19608 5.59869 2.85098 6.40392C2.51111 7.20915 2.34118 8.07451 2.34118 9C2.34118 9.92549 2.51111 10.7909 2.85098 11.5961C3.19608 12.4013 3.6719 13.1098 4.27843 13.7216C4.8902 14.3281 5.59869 14.8039 6.40392 15.149C7.20915 15.4941 8.07451 15.6667 9 15.6667Z" fill="#4B4C5C"/>
<path d="M9.37702 6.2548C9.24975 5.9028 8.75194 5.9028 8.62468 6.2548L7.37891 9.70047H10.6228L9.37702 6.2548Z" fill="#4B4C5C" stroke="#4B4C5C" stroke-width="0.977783" stroke-linecap="round" stroke-linejoin="round"/>
<path d="M5.30078 15.1405L6.1067 11.2909C6.30067 10.3643 7.11764 9.70068 8.06426 9.70068H9.93964C10.8863 9.70068 11.7032 10.3643 11.8972 11.2909L12.7031 15.1405" stroke="#4B4C5C" stroke-width="1.1"/>
</svg>
