<svg width="18" height="17" viewBox="0 0 18 17" fill="none" xmlns="http://www.w3.org/2000/svg">
<path fill-rule="evenodd" clip-rule="evenodd" d="M2.8013 3.01569C2.18726 3.56667 1.83185 4.42934 1.83185 5.713V9.17082C1.83185 10.8392 2.20658 11.659 2.7724 12.1032C3.37267 12.5745 4.3418 12.7566 5.87807 12.7566H6.26342C6.47212 12.7566 6.6782 12.8152 6.84341 12.8887C7.00434 12.9603 7.19259 13.0754 7.33022 13.2433L8.48413 14.6239C8.63768 14.8076 8.81315 14.8728 8.96091 14.8728C9.10866 14.8728 9.28413 14.8076 9.43769 14.6239L10.5937 13.2408L10.5961 13.2379C10.8572 12.9297 11.2548 12.7566 11.6584 12.7566H12.0437C13.5074 12.7566 14.4974 12.4273 15.1205 11.8681C15.7346 11.3171 16.09 10.4545 16.09 9.17082V5.713C16.09 4.42934 15.7346 3.56667 15.1205 3.01569C14.4974 2.45656 13.5074 2.12723 12.0437 2.12723H5.87807C4.41439 2.12723 3.42442 2.45656 2.8013 3.01569ZM2.01846 2.18623C2.93675 1.36224 4.25891 1 5.87807 1H12.0437C13.6629 1 14.9851 1.36224 15.9034 2.18623C16.8307 3.01838 17.246 4.2304 17.246 5.713V9.17082C17.246 10.6534 16.8307 11.8654 15.9034 12.6976C14.9851 13.5216 13.6629 13.8838 12.0437 13.8838H11.6584C11.5847 13.8838 11.5203 13.9177 11.4882 13.9549C11.488 13.9551 11.4878 13.9554 11.4875 13.9557L10.3338 15.336C9.97871 15.7609 9.48367 16 8.96091 16C8.43814 16 7.9431 15.7609 7.58798 15.336L6.43281 13.954C6.43106 13.9525 6.42826 13.9504 6.42422 13.9476C6.41041 13.9379 6.38967 13.9258 6.36359 13.9142C6.33766 13.9027 6.31219 13.8942 6.29069 13.889C6.27182 13.8844 6.26227 13.8839 6.26227 13.8838L5.87807 13.8838C4.3315 13.8838 2.9885 13.7201 2.04735 12.9812C1.07175 12.2152 0.675781 10.9602 0.675781 9.17082V5.713C0.675781 4.2304 1.09108 3.01838 2.01846 2.18623Z" fill="#4B4C5C"/>
<path d="M4.95312 5.1709H13.2768" stroke="#4B4C5C" stroke-width="0.924851" stroke-linecap="round"/>
<path d="M4.95312 7.42529H13.2768" stroke="#4B4C5C" stroke-width="0.924851" stroke-linecap="round"/>
<path d="M4.95312 9.67969H9.57738" stroke="#4B4C5C" stroke-width="0.924851" stroke-linecap="round"/>
</svg>
