<svg width="20" height="20" viewBox="0 0 20 20" fill="none" xmlns="http://www.w3.org/2000/svg">
<path d="M14.5076 3.01332C14.8363 2.68465 15.2821 2.5 15.7469 2.5C16.2117 2.5 16.6575 2.68465 16.9861 3.01332C17.3148 3.34199 17.4994 3.78777 17.4994 4.25258C17.4994 4.71739 17.3148 5.16317 16.9861 5.49184L10.8328 11.6667L8.8755 12.156C8.26518 12.3086 7.71235 11.7557 7.86493 11.1454L8.35425 9.18814L14.5076 3.01332Z" stroke="white" stroke-width="1.3" stroke-linecap="round" stroke-linejoin="round"/>
<path d="M10.8333 2.5H9.16667C6.02397 2.5 4.45262 2.5 3.47631 3.47631C2.5 4.45262 2.5 6.02397 2.5 9.16667V10.8333C2.5 13.976 2.5 15.5474 3.47631 16.5237C4.45262 17.5 6.02397 17.5 9.16667 17.5H10.8333C13.976 17.5 15.5474 17.5 16.5237 16.5237C17.5 15.5474 17.5 13.976 17.5 10.8333V9.16667" stroke="white" stroke-width="1.3" stroke-linecap="round"/>
</svg>
