<svg width="21" height="21" viewBox="0 0 21 21" fill="none" xmlns="http://www.w3.org/2000/svg">
<path d="M2 14.5V5.5C2 4.11929 3.11929 3 4.5 3H7.29844C8.0579 3 8.77618 3.34522 9.25061 3.93826L9.74939 4.56174C10.2238 5.15478 10.9421 5.5 11.7016 5.5H16.5C17.8807 5.5 19 6.61929 19 8V14.5C19 15.8807 17.8807 17 16.5 17H4.5C3.11929 17 2 15.8807 2 14.5Z" stroke="white" stroke-width="1.3"/>
<path d="M7.93359 10.8877C7.93359 10.7373 7.98633 10.6094 8.0918 10.5039C8.19727 10.3984 8.3252 10.3457 8.47559 10.3457H9.96094V8.86328C9.96094 8.71289 10.0127 8.58496 10.1162 8.47949C10.2217 8.37402 10.3496 8.32129 10.5 8.32129C10.6484 8.32129 10.7754 8.37402 10.8809 8.47949C10.9883 8.58496 11.042 8.71289 11.042 8.86328V10.3457H12.5244C12.6729 10.3457 12.7998 10.3984 12.9053 10.5039C13.0107 10.6094 13.0635 10.7373 13.0635 10.8877C13.0635 11.0381 13.0107 11.166 12.9053 11.2715C12.7998 11.377 12.6729 11.4297 12.5244 11.4297H11.042V12.9121C11.042 13.0605 10.9883 13.1875 10.8809 13.293C10.7754 13.3984 10.6484 13.4512 10.5 13.4512C10.3496 13.4512 10.2217 13.3984 10.1162 13.293C10.0127 13.1875 9.96094 13.0605 9.96094 12.9121V11.4297H8.47559C8.3252 11.4297 8.19727 11.377 8.0918 11.2715C7.98633 11.166 7.93359 11.0381 7.93359 10.8877Z" fill="white"/>
</svg>
