<svg width="18" height="18" viewBox="0 0 18 18" fill="none" xmlns="http://www.w3.org/2000/svg">
<path d="M4.82812 14.3051C4.63021 14.3937 4.4375 14.4249 4.25 14.3989C4.0625 14.3676 3.89583 14.2791 3.75 14.1332L2.64062 13.0161C2.48958 12.865 2.40104 12.6984 2.375 12.5161C2.35417 12.3286 2.38542 12.1359 2.46875 11.9379L3.5625 9.34418C3.60417 9.25043 3.64323 9.17752 3.67969 9.12543C3.72135 9.06814 3.77083 9.01085 3.82812 8.95356L11.3125 1.53168C11.6771 1.1671 12.0625 0.990017 12.4688 1.00043C12.8802 1.00564 13.2734 1.19314 13.6484 1.56293L15.2891 3.21918C15.6589 3.59418 15.8438 3.98481 15.8438 4.39106C15.849 4.79731 15.6693 5.18273 15.3047 5.54731L7.82812 12.977C7.76562 13.0343 7.70573 13.0838 7.64844 13.1254C7.59635 13.1619 7.52083 13.1984 7.42188 13.2348L4.82812 14.3051ZM4.71094 13.0942L6.98438 12.1489L14.4297 4.75825C14.6693 4.52387 14.6771 4.2921 14.4531 4.06293L12.8047 2.39887C12.7005 2.2895 12.5859 2.23741 12.4609 2.24262C12.3359 2.24783 12.2161 2.30512 12.1016 2.4145L4.65625 9.80512L3.6875 12.0707C3.65625 12.1437 3.64323 12.214 3.64844 12.2817C3.65365 12.3442 3.69271 12.4093 3.76562 12.477L4.29688 13.0082C4.36979 13.0812 4.4375 13.1202 4.5 13.1254C4.5625 13.1306 4.63281 13.1202 4.71094 13.0942ZM3.94531 9.79731L4.67969 9.06293L7.875 12.2817L7.14062 13.0161L3.94531 9.79731ZM10.4297 3.36762L11.1641 2.64106L14.3594 5.85981L13.625 6.57856L10.4297 3.36762ZM1.625 17.4848C1.45312 17.4848 1.30469 17.4223 1.17969 17.2973C1.0599 17.1723 1 17.0239 1 16.852C1 16.6801 1.0599 16.5317 1.17969 16.4067C1.30469 16.2869 1.45312 16.227 1.625 16.227H16.5547C16.7266 16.227 16.875 16.2869 17 16.4067C17.125 16.5317 17.1875 16.6801 17.1875 16.852C17.1875 17.0239 17.125 17.1723 17 17.2973C16.875 17.4223 16.7266 17.4848 16.5547 17.4848H1.625Z" fill="#4B4C5C"/>
<path d="M2.09926 14.2782C2.01257 14.5174 2.24431 14.7491 2.48353 14.6625L3.8303 14.1744C4.03679 14.0996 4.09552 13.8355 3.94022 13.6802L3.08151 12.8215C2.92621 12.6662 2.66216 12.7249 2.58733 12.9314L2.09926 14.2782Z" fill="#4B4C5C"/>
</svg>
