<svg width="20" height="20" viewBox="0 0 20 20" fill="none" xmlns="http://www.w3.org/2000/svg">
<path d="M13.3333 6.85001C12.9744 6.85001 12.6833 7.14102 12.6833 7.50001C12.6833 7.859 12.9744 8.15001 13.3333 8.15001V6.85001ZM6.66668 8.15001C7.02566 8.15001 7.31668 7.859 7.31668 7.50001C7.31668 7.14102 7.02566 6.85001 6.66668 6.85001V8.15001ZM4.23172 16.479L3.93209 17.0559L3.93209 17.0559L4.23172 16.479ZM3.52099 15.7683L4.09781 15.4687L4.09781 15.4687L3.52099 15.7683ZM16.479 15.7683L17.0559 16.0679L17.0559 16.0679L16.479 15.7683ZM15.7683 16.479L16.0679 17.0559L16.0679 17.0559L15.7683 16.479ZM16.479 8.39839L17.0559 8.09875L17.0559 8.09875L16.479 8.39839ZM15.7683 7.68765L15.4687 8.26447L15.4687 8.26447L15.7683 7.68765ZM3.52099 8.39839L2.94417 8.09875L2.94417 8.09875L3.52099 8.39839ZM4.23172 7.68765L3.93209 7.11084L3.93209 7.11084L4.23172 7.68765ZM9.35001 11.6667C9.35001 12.0257 9.64102 12.3167 10 12.3167C10.359 12.3167 10.65 12.0257 10.65 11.6667L9.35001 11.6667ZM10 3.33334L10.4596 2.87372C10.2058 2.61988 9.79423 2.61988 9.54039 2.87372L10 3.33334ZM11.6237 5.8763C11.8776 6.13014 12.2891 6.13014 12.543 5.8763C12.7968 5.62246 12.7968 5.2109 12.543 4.95706L11.6237 5.8763ZM7.45706 4.95706C7.20322 5.2109 7.20322 5.62246 7.45706 5.8763C7.7109 6.13014 8.12246 6.13014 8.3763 5.8763L7.45706 4.95706ZM16.0167 10.1833V13.9833H17.3167V10.1833H16.0167ZM13.9833 16.0167H6.01668V17.3167H13.9833V16.0167ZM3.98334 13.9833V10.1833H2.68334V13.9833H3.98334ZM13.3333 8.15001H13.9833V6.85001H13.3333V8.15001ZM6.01668 8.15001H6.66668V6.85001H6.01668V8.15001ZM6.01668 16.0167C5.53119 16.0167 5.20682 16.0162 4.95752 15.9955C4.716 15.9754 4.60372 15.9398 4.53135 15.9022L3.93209 17.0559C4.22094 17.2059 4.52657 17.2641 4.84993 17.291C5.16552 17.3172 5.55301 17.3167 6.01668 17.3167V16.0167ZM2.68334 13.9833C2.68334 14.447 2.68282 14.8345 2.70903 15.1501C2.73588 15.4734 2.79412 15.7791 2.94417 16.0679L4.09781 15.4687C4.06021 15.3963 4.02463 15.284 4.00457 15.0425C3.98387 14.7932 3.98334 14.4688 3.98334 13.9833H2.68334ZM4.53135 15.9022C4.34567 15.8058 4.19426 15.6544 4.09781 15.4687L2.94417 16.0679C3.16396 16.4911 3.50896 16.8361 3.93209 17.0559L4.53135 15.9022ZM16.0167 13.9833C16.0167 14.4688 16.0162 14.7932 15.9955 15.0425C15.9754 15.284 15.9398 15.3963 15.9022 15.4687L17.0559 16.0679C17.2059 15.7791 17.2641 15.4734 17.291 15.1501C17.3172 14.8345 17.3167 14.447 17.3167 13.9833H16.0167ZM13.9833 17.3167C14.447 17.3167 14.8345 17.3172 15.1501 17.291C15.4734 17.2641 15.7791 17.2059 16.0679 17.0559L15.4687 15.9022C15.3963 15.9398 15.284 15.9754 15.0425 15.9955C14.7932 16.0162 14.4688 16.0167 13.9833 16.0167V17.3167ZM15.9022 15.4687C15.8058 15.6544 15.6544 15.8058 15.4687 15.9022L16.0679 17.0559C16.4911 16.8361 16.8361 16.4911 17.0559 16.0679L15.9022 15.4687ZM17.3167 10.1833C17.3167 9.71968 17.3172 9.33218 17.291 9.0166C17.2641 8.69324 17.2059 8.38761 17.0559 8.09875L15.9022 8.69802C15.9398 8.77039 15.9754 8.88267 15.9955 9.12419C16.0162 9.37349 16.0167 9.69786 16.0167 10.1833H17.3167ZM13.9833 8.15001C14.4688 8.15001 14.7932 8.15053 15.0425 8.17124C15.284 8.19129 15.3963 8.22688 15.4687 8.26447L16.0679 7.11084C15.7791 6.96079 15.4734 6.90255 15.1501 6.8757C14.8345 6.84949 14.447 6.85001 13.9833 6.85001V8.15001ZM17.0559 8.09875C16.8361 7.67563 16.4911 7.33063 16.0679 7.11084L15.4687 8.26447C15.6544 8.36093 15.8058 8.51233 15.9022 8.69802L17.0559 8.09875ZM3.98334 10.1833C3.98334 9.69786 3.98387 9.37349 4.00457 9.12419C4.02463 8.88267 4.06021 8.77039 4.09781 8.69802L2.94417 8.09875C2.79412 8.38761 2.73588 8.69324 2.70903 9.0166C2.68282 9.33218 2.68334 9.71968 2.68334 10.1833H3.98334ZM6.01668 6.85001C5.55301 6.85001 5.16552 6.84949 4.84993 6.8757C4.52657 6.90255 4.22094 6.96079 3.93209 7.11084L4.53135 8.26447C4.60372 8.22688 4.716 8.19129 4.95752 8.17124C5.20682 8.15053 5.53119 8.15001 6.01668 8.15001V6.85001ZM4.09781 8.69802C4.19426 8.51233 4.34567 8.36093 4.53135 8.26447L3.93209 7.11084C3.50896 7.33063 3.16396 7.67563 2.94417 8.09875L4.09781 8.69802ZM10.65 11.6667L10.65 3.33334L9.35001 3.33334L9.35001 11.6667L10.65 11.6667ZM9.54039 3.79296L11.6237 5.8763L12.543 4.95706L10.4596 2.87372L9.54039 3.79296ZM9.54039 2.87372L7.45706 4.95706L8.3763 5.8763L10.4596 3.79296L9.54039 2.87372Z" fill="white"/>
</svg>
