<svg width="106" height="84" viewBox="0 0 106 84" fill="none" xmlns="http://www.w3.org/2000/svg">
<path d="M94.4766 7.88428H48.1997C42.1351 7.88428 37.2188 12.8006 37.2188 18.8652V32.1993C37.2188 38.2639 42.1351 43.1802 48.1997 43.1802H94.4766C100.541 43.1802 105.458 38.2639 105.458 32.1993V18.8652C105.458 12.8006 100.541 7.88428 94.4766 7.88428Z" fill="#DADDEF"/>
<path d="M0.355469 71.7556V12.2445C0.355469 5.50255 5.82091 0.0371094 12.5629 0.0371094H42.7957C46.4644 0.0371094 49.9385 1.68707 52.2569 4.53044L62.9698 17.6697C65.2881 20.5131 68.7623 22.163 72.431 22.163H93.2516C99.9935 22.163 105.459 27.6285 105.459 34.3704V71.7556C105.459 78.4976 99.9935 83.963 93.2516 83.963H12.5629C5.82091 83.963 0.355469 78.4976 0.355469 71.7556Z" fill="white"/>
</svg>
