<svg width="18" height="18" viewBox="0 0 18 18" fill="none" xmlns="http://www.w3.org/2000/svg">
<path d="M14.2461 15.7498L13.2283 10.6618C12.9973 9.50676 12.8818 8.92926 12.4671 8.58951C12.0523 8.24976 11.4636 8.24976 10.2868 8.24976H7.70534C6.52784 8.24976 5.93984 8.24976 5.52509 8.58951C5.11034 8.93001 4.99484 9.50676 4.76384 10.6618L3.74609 15.7498" stroke="#4B4C5C" stroke-width="1.5" stroke-linecap="round"/>
<path d="M7.90393 3.31979L9.73393 2.91313C10.2799 2.79181 10.8099 3.17237 10.8695 3.72843L11.2629 7.40013C11.3222 7.95425 10.888 8.4375 10.3307 8.4375H7.69917C7.13527 8.4375 6.69897 7.94327 6.76891 7.38372L7.17704 4.11869C7.22618 3.72554 7.51716 3.40574 7.90393 3.31979Z" fill="#4B4C5C" stroke="#4B4C5C" stroke-width="1.125"/>
</svg>
