<svg width="17" height="18" viewBox="0 0 17 18" fill="none" xmlns="http://www.w3.org/2000/svg">
<path d="M2.125 4.95342H3.54167M3.54167 4.95342H14.875M3.54167 4.95342V14.8701C3.54167 15.2458 3.69092 15.6061 3.9566 15.8718C4.22228 16.1375 4.58261 16.2868 4.95833 16.2868H12.0417C12.4174 16.2868 12.7777 16.1375 13.0434 15.8718C13.3091 15.6061 13.4583 15.2458 13.4583 14.8701V4.95342H3.54167ZM5.66667 4.95342V3.53675C5.66667 3.16103 5.81592 2.8007 6.0816 2.53502C6.34728 2.26934 6.70761 2.12009 7.08333 2.12009H9.91667C10.2924 2.12009 10.6527 2.26934 10.9184 2.53502C11.1841 2.8007 11.3333 3.16103 11.3333 3.53675V4.95342M7.08333 8.49509V12.7451M9.91667 8.49509V12.7451" stroke="#F96D55" stroke-width="1.3" stroke-linecap="round" stroke-linejoin="round"/>
</svg>
