<svg width="15" height="15" viewBox="0 0 15 15" fill="none" xmlns="http://www.w3.org/2000/svg">
<path fill-rule="evenodd" clip-rule="evenodd" d="M2.33572 2.52275C1.82402 2.98366 1.52784 3.70532 1.52784 4.77914V7.67174C1.52784 9.0674 1.84012 9.75315 2.31164 10.1248C2.81186 10.519 3.61947 10.6714 4.89969 10.6714H5.22082C5.39474 10.6714 5.56647 10.7204 5.70414 10.7819C5.83825 10.8417 5.99513 10.938 6.10982 11.0786L7.07141 12.2334C7.19937 12.3871 7.3456 12.4416 7.46872 12.4416C7.59185 12.4416 7.73808 12.3871 7.86604 12.2334L8.82943 11.0764L8.83141 11.074C9.04898 10.8162 9.38027 10.6714 9.71663 10.6714H10.0378C11.2575 10.6714 12.0825 10.3959 12.6017 9.92813C13.1134 9.46722 13.4096 8.74556 13.4096 7.67174V4.77914C13.4096 3.70532 13.1134 2.98366 12.6017 2.52275C12.0825 2.05501 11.2575 1.77952 10.0378 1.77952H4.89969C3.67996 1.77952 2.85498 2.05501 2.33572 2.52275ZM1.68335 1.82888C2.4486 1.13957 3.55039 0.836548 4.89969 0.836548H10.0378C11.3871 0.836548 12.4889 1.13957 13.2541 1.82888C14.0269 2.525 14.373 3.5389 14.373 4.77914V7.67174C14.373 8.91198 14.0269 9.92588 13.2541 10.622C12.4889 11.3113 11.3871 11.6143 10.0378 11.6143H9.71663C9.65525 11.6143 9.60155 11.6426 9.57484 11.6738C9.57463 11.674 9.57443 11.6742 9.57423 11.6745L8.61283 12.8292C8.3169 13.1846 7.90436 13.3846 7.46872 13.3846C7.03309 13.3846 6.62055 13.1846 6.32462 12.8292L5.36197 11.673C5.36052 11.6718 5.35818 11.67 5.35482 11.6677C5.34331 11.6596 5.32603 11.6495 5.30429 11.6398C5.28269 11.6301 5.26146 11.623 5.24355 11.6187C5.22782 11.6148 5.21986 11.6144 5.21986 11.6143H4.89969C3.61089 11.6143 2.49172 11.4774 1.70743 10.8592C0.894428 10.2185 0.564453 9.16866 0.564453 7.67174V4.77914C0.564453 3.5389 0.910532 2.525 1.68335 1.82888Z" fill="#727BC7"/>
<path d="M4.12695 4.32568H11.0639" stroke="#727BC7" stroke-width="0.773672" stroke-linecap="round"/>
<path d="M4.12695 6.21167H11.0639" stroke="#727BC7" stroke-width="0.773672" stroke-linecap="round"/>
<path d="M4.12695 8.09753H7.9808" stroke="#727BC7" stroke-width="0.773672" stroke-linecap="round"/>
</svg>
