<svg width="17" height="17" viewBox="0 0 17 17" fill="none" xmlns="http://www.w3.org/2000/svg">
<path d="M11.7702 2.65769C11.9391 2.48881 12.1396 2.35484 12.3603 2.26344C12.5809 2.17204 12.8174 2.125 13.0563 2.125C13.2951 2.125 13.5316 2.17204 13.7523 2.26344C13.9729 2.35484 14.1734 2.48881 14.3423 2.65769C14.5112 2.82658 14.6452 3.02707 14.7366 3.24773C14.828 3.46839 14.875 3.70489 14.875 3.94372C14.875 4.18256 14.828 4.41906 14.7366 4.63972C14.6452 4.86038 14.5112 5.06087 14.3423 5.22976L5.7946 13.7775C5.70744 13.8646 5.59903 13.9275 5.48011 13.96L3.32091 14.5488C2.79214 14.6931 2.30695 14.2079 2.45116 13.6791L3.04003 11.5199C3.07246 11.401 3.13537 11.2926 3.22254 11.2054L11.7702 2.65769Z" stroke="#4B4C5C" stroke-width="1.3" stroke-linecap="round" stroke-linejoin="round"/>
</svg>
