<svg width="40" height="42" viewBox="0 0 40 42" fill="none" xmlns="http://www.w3.org/2000/svg">
<path d="M13.3203 12.6777H26.6973C27.0254 12.6777 27.2949 12.5605 27.5059 12.3262C27.7285 12.0918 27.8398 11.8105 27.8398 11.4824C27.8398 11.166 27.7285 10.9023 27.5059 10.6914C27.2949 10.4687 27.0254 10.3574 26.6973 10.3574H13.3203C12.9805 10.3574 12.6992 10.4687 12.4766 10.6914C12.2539 10.9023 12.1426 11.166 12.1426 11.4824C12.1426 11.8105 12.2539 12.0918 12.4766 12.3262C12.6992 12.5605 12.9805 12.6777 13.3203 12.6777ZM13.3203 18.918H26.6973C27.0254 18.918 27.2949 18.8066 27.5059 18.584C27.7285 18.3496 27.8398 18.0625 27.8398 17.7227C27.8398 17.4062 27.7285 17.1426 27.5059 16.9316C27.2949 16.709 27.0254 16.5977 26.6973 16.5977H13.3203C12.9805 16.5977 12.6992 16.709 12.4766 16.9316C12.2539 17.1426 12.1426 17.4062 12.1426 17.7227C12.1426 18.0625 12.2539 18.3496 12.4766 18.584C12.6992 18.8066 12.9805 18.918 13.3203 18.918ZM13.3203 25.1582H19.7715C20.1113 25.1582 20.3926 25.0469 20.6152 24.8242C20.8379 24.6016 20.9492 24.332 20.9492 24.0156C20.9492 23.6875 20.8379 23.4121 20.6152 23.1895C20.3926 22.9551 20.1113 22.8379 19.7715 22.8379H13.3203C12.9805 22.8379 12.6992 22.9551 12.4766 23.1895C12.2539 23.4121 12.1426 23.6875 12.1426 24.0156C12.1426 24.332 12.2539 24.6016 12.4766 24.8242C12.6992 25.0469 12.9805 25.1582 13.3203 25.1582ZM4.91797 34.5801V8.05469C4.91797 6.16797 5.39844 4.73828 6.35938 3.76562C7.32031 2.78125 8.74414 2.28906 10.6309 2.28906H29.3516C31.2383 2.28906 32.6621 2.78125 33.623 3.76562C34.584 4.73828 35.0645 6.16797 35.0645 8.05469V34.5801C35.0645 36.4785 34.584 37.9141 33.623 38.8867C32.6621 39.8594 31.2383 40.3457 29.3516 40.3457H10.6309C8.74414 40.3457 7.32031 39.8594 6.35938 38.8867C5.39844 37.9141 4.91797 36.4785 4.91797 34.5801Z" fill="white"/>
</svg>
